<svg width="36" height="37" viewBox="0 0 36 37" fill="none" xmlns="http://www.w3.org/2000/svg">
<path d="M12 31.8438C12 29.7225 12 28.6618 12.659 28.0027C13.318 27.3438 14.3787 27.3438 16.5 27.3438H19.5C21.6213 27.3438 22.682 27.3438 23.3411 28.0027C24 28.6618 24 29.7225 24 31.8438V33.3438H12V31.8438Z" stroke="#351C42" stroke-width="1.5" stroke-linecap="round" stroke-linejoin="round"/>
<path d="M18 19.8438V27.3438" stroke="#351C42" stroke-width="1.5" stroke-linecap="round" stroke-linejoin="round"/>
<path d="M9 33.3438H27" stroke="#351C42" stroke-width="1.5" stroke-linecap="round" stroke-linejoin="round"/>
<path d="M19.5549 4.64352L21.1388 7.83735C21.3546 8.28193 21.9306 8.70838 22.4166 8.79004L25.2873 9.27093C27.123 9.57943 27.555 10.9223 26.2322 12.247L24.0005 14.4972C23.6225 14.8783 23.4155 15.6132 23.5325 16.1395L24.1713 18.925C24.6753 21.1299 23.5145 21.9828 21.5796 20.8305L18.8889 19.2244C18.4031 18.934 17.6021 18.934 17.1072 19.2244L14.4164 20.8305C12.4907 21.9828 11.3208 21.1207 11.8247 18.925L12.4637 16.1395C12.5807 15.6132 12.3737 14.8783 11.9957 14.4972L9.76395 12.247C8.4501 10.9223 8.87306 9.57943 10.7088 9.27093L13.5795 8.79004C14.0565 8.70838 14.6324 8.28193 14.8484 7.83735L16.4322 4.64352C17.2961 2.91049 18.6999 2.91049 19.5549 4.64352Z" stroke="#351C42" stroke-width="1.5" stroke-linecap="round" stroke-linejoin="round"/>
</svg>
