<svg width="36" height="37" viewBox="0 0 36 37" fill="none" xmlns="http://www.w3.org/2000/svg">
<path d="M2.99609 15.3438C2.99609 11.1011 2.99609 8.97979 4.31411 7.66177C5.63213 6.34375 7.75345 6.34375 11.9961 6.34375H23.9961C28.2387 6.34375 30.36 6.34375 31.678 7.66177C32.9961 8.97979 32.9961 11.1011 32.9961 15.3438V21.3438C32.9961 25.5863 32.9961 27.7076 31.678 29.0257C30.36 30.3437 28.2387 30.3438 23.9961 30.3438H11.9961C7.75345 30.3438 5.63213 30.3437 4.31411 29.0257C2.99609 27.7076 2.99609 25.5863 2.99609 21.3438V15.3438Z" stroke="#351C42" stroke-width="1.5" stroke-linecap="round" stroke-linejoin="round"/>
<path d="M8.99609 15.2002C8.99609 8.38357 17.9961 15.329 17.9961 19.8437H12.7461C10.1409 19.8437 8.99609 17.5486 8.99609 15.2002Z" stroke="#351C42" stroke-width="1.5" stroke-linecap="round" stroke-linejoin="round"/>
<path d="M26.9961 15.2002C26.9961 8.38357 17.9961 15.329 17.9961 19.8437H23.2461C25.8513 19.8437 26.9961 17.5486 26.9961 15.2002Z" stroke="#351C42" stroke-width="1.5" stroke-linecap="round" stroke-linejoin="round"/>
<path d="M17.9961 6.34375V30.3438" stroke="#351C42" stroke-width="1.5" stroke-linecap="round" stroke-linejoin="round"/>
<path d="M2.99609 19.8438H32.9961" stroke="#351C42" stroke-width="1.5" stroke-linecap="round" stroke-linejoin="round"/>
<path d="M22.4961 24.3438L17.9961 19.8438L13.4961 24.3438" stroke="#351C42" stroke-width="1.5" stroke-linecap="round" stroke-linejoin="round"/>
</svg>
