<svg width="36" height="37" viewBox="0 0 36 37" fill="none" xmlns="http://www.w3.org/2000/svg">
<path d="M5.99609 16.8594V22.8594C5.99609 27.8091 5.99609 30.2839 7.53379 31.8217C9.07147 33.3594 11.5463 33.3594 16.4961 33.3594H19.4961C24.4458 33.3594 26.9206 33.3594 28.4584 31.8217C29.9961 30.2839 29.9961 27.8091 29.9961 22.8594V16.8594" stroke="#351C42" stroke-width="1.5" stroke-linecap="round" stroke-linejoin="round"/>
<path d="M4.49609 13.8594C4.49609 12.7378 4.49609 12.1771 4.79753 11.7594C4.99501 11.4857 5.27905 11.2585 5.62109 11.1005C6.14321 10.8594 6.84416 10.8594 8.24609 10.8594H27.7461C29.148 10.8594 29.8489 10.8594 30.3711 11.1005C30.7131 11.2585 30.9972 11.4857 31.1946 11.7594C31.4961 12.1771 31.4961 12.7378 31.4961 13.8594C31.4961 14.9809 31.4961 15.5416 31.1946 15.9594C30.9972 16.233 30.7131 16.4602 30.3711 16.6182C29.8489 16.8594 29.148 16.8594 27.7461 16.8594H8.24609C6.84416 16.8594 6.14321 16.8594 5.62109 16.6182C5.27905 16.4602 4.99501 16.233 4.79753 15.9594C4.49609 15.5416 4.49609 14.9809 4.49609 13.8594Z" stroke="#351C42" stroke-width="1.5" stroke-linejoin="round"/>
<path d="M8.99609 6.03794C8.99609 4.55861 10.1953 3.35938 11.6747 3.35938H12.2104C15.4057 3.35938 17.9961 5.94973 17.9961 9.14509V10.8594H13.8175C11.1547 10.8594 8.99609 8.70074 8.99609 6.03794Z" stroke="#351C42" stroke-width="1.5" stroke-linejoin="round"/>
<path d="M26.9961 6.03794C26.9961 4.55861 25.7968 3.35938 24.3175 3.35938H23.7817C20.5864 3.35938 17.9961 5.94973 17.9961 9.14509V10.8594H22.1746C24.8374 10.8594 26.9961 8.70074 26.9961 6.03794Z" stroke="#351C42" stroke-width="1.5" stroke-linejoin="round"/>
<path d="M17.9961 16.8594V33.3594" stroke="#351C42" stroke-width="1.5" stroke-linecap="round" stroke-linejoin="round"/>
</svg>
