<svg width="36" height="37" viewBox="0 0 36 37" fill="none" xmlns="http://www.w3.org/2000/svg">
<path d="M5.25 16.8438C4.00736 16.8438 3 15.8364 3 14.5938C3 13.3511 4.00736 12.3438 5.25 12.3438H6.37804C7.71018 7.16808 12.4085 3.34375 18 3.34375C23.5915 3.34375 28.2898 7.16808 29.622 12.3438H30C31.2426 12.3438 32.25 13.3511 32.25 14.5938C32.25 15.8364 31.2426 16.8438 30 16.8438H29.9072C29.169 22.7632 24.1194 27.3438 18 27.3438C11.8806 27.3438 6.83099 22.7632 6.09284 16.8438H5.25Z" stroke="#351C42" stroke-width="1.5" stroke-linejoin="round"/>
<path d="M6.75 12.3438H9C13.9706 12.3438 18 8.31431 18 3.34375" stroke="#351C42" stroke-width="1.5" stroke-linecap="round" stroke-linejoin="round"/>
<path d="M29.25 12.3438H27C22.0295 12.3438 18 8.31431 18 3.34375" stroke="#351C42" stroke-width="1.5" stroke-linecap="round" stroke-linejoin="round"/>
<path d="M18 22.8438C18.8284 22.8438 19.5 22.1722 19.5 21.3438H16.5C16.5 22.1722 17.1716 22.8438 18 22.8438Z" stroke="#351C42" stroke-linejoin="round"/>
<path d="M27 33.3438C27 30.6557 25.8216 28.2429 23.9531 26.5938M9 33.3438C9 30.6557 10.1784 28.2429 12.0469 26.5938" stroke="#351C42" stroke-width="1.5" stroke-linecap="round"/>
<path d="M13.5 15.3438V15.3588" stroke="#351C42" stroke-width="1.5" stroke-linecap="round"/>
<path d="M22.5 15.3438V15.3588" stroke="#351C42" stroke-width="1.5" stroke-linecap="round"/>
</svg>
