<svg width="36" height="37" viewBox="0 0 36 37" fill="none" xmlns="http://www.w3.org/2000/svg">
<path d="M27.75 27.1007C29.2958 26.8738 30.394 26.4349 31.2426 25.5863C33 23.8291 33 21.0005 33 15.3438C33 9.68689 33 6.85848 31.2426 5.10111C29.4853 3.34375 26.6568 3.34375 21 3.34375H15C9.34314 3.34375 6.51473 3.34375 4.75736 5.10111C3 6.85848 3 9.68689 3 15.3438C3 21.0005 3 23.8291 4.75736 25.5863C5.96963 26.7986 7.69155 27.1747 10.5 27.2913" stroke="#351C42" stroke-width="1.5" stroke-linecap="round"/>
<path d="M25.5 10.8438H10.5" stroke="#351C42" stroke-width="1.5" stroke-linecap="round" stroke-linejoin="round"/>
<path d="M21.75 22.0938C21.75 24.1648 20.071 25.8438 18 25.8438C15.929 25.8438 14.25 24.1648 14.25 22.0938C14.25 20.0227 15.929 18.3438 18 18.3438C20.071 18.3438 21.75 20.0227 21.75 22.0938Z" stroke="#351C42" stroke-width="1.5"/>
<path d="M14.25 22.0938C14.25 28.1926 16.8333 31.6496 18 33.3438L20.25 28.8438L22.875 30.3438L25.5 31.8438C24.3979 30.777 23.2587 27.4144 23.2587 27.4144" stroke="#351C42" stroke-width="1.5" stroke-linecap="round" stroke-linejoin="round"/>
</svg>
