<svg width="36" height="37" viewBox="0 0 36 37" fill="none" xmlns="http://www.w3.org/2000/svg">
<path d="M23.9961 25.8438L24.3109 26.1586C24.864 26.7116 25.1406 26.9883 25.4754 26.9697C25.8102 26.9512 26.0544 26.6456 26.5429 26.0348L28.4955 23.5938M19.4961 23.5252V24.1042C19.4961 25.907 19.4961 26.8084 19.7187 27.6334C19.9935 28.6522 20.5147 29.5916 21.2385 30.3733C21.8244 31.0061 22.5978 31.4989 24.1443 32.4844C24.8367 32.9255 25.1829 33.1462 25.5508 33.2488C26.0053 33.3754 26.4868 33.3754 26.9413 33.2488C27.3093 33.1462 27.6555 32.9255 28.3479 32.4844C29.8944 31.4989 30.6678 31.0061 31.2537 30.3733C31.9774 29.5916 32.4987 28.6522 32.7735 27.6334C32.9961 26.8084 32.9961 25.907 32.9961 24.1042V23.5252C32.9961 22.4026 32.9961 21.8413 32.7834 21.3673C32.6521 21.075 32.4642 20.8102 32.2299 20.5878C31.8499 20.227 31.3116 20.0299 30.2346 19.6357L28.0236 18.8265C27.1446 18.5047 26.7051 18.3438 26.2461 18.3438C25.7871 18.3438 25.3476 18.5047 24.4686 18.8265L22.2576 19.6357C21.1806 20.0299 20.6422 20.227 20.2623 20.5878C20.028 20.8102 19.84 21.075 19.7088 21.3673C19.4961 21.8413 19.4961 22.4026 19.4961 23.5252Z" stroke="#351C42" stroke-width="1.5" stroke-linecap="round" stroke-linejoin="round"/>
<path d="M24.2529 12.2074V14.5938M24.2529 12.2074C24.2529 11.0777 25.2028 10.1619 26.3745 10.1619C27.5463 10.1619 28.4961 11.0777 28.4961 12.2074V14.5938M24.2529 12.2074V8.11649C24.2529 6.98681 23.3031 6.07104 22.1313 6.07104C20.9596 6.07104 20.0097 6.98681 20.0097 8.11649M20.0097 8.11649V14.5938M20.0097 8.11649V5.38921C20.0097 4.25953 19.0599 3.34375 17.8881 3.34375C16.7164 3.34375 15.7665 4.25953 15.7665 5.38921V9.48013M15.7665 9.48013C15.7665 8.35045 14.8167 7.43467 13.645 7.43467C12.4732 7.43467 11.5234 8.35045 11.5234 9.48013V19.3007C11.5234 19.9247 10.7246 20.2208 10.2897 19.7581L6.85278 16.1002C6.26839 15.4101 5.28072 15.1764 4.43142 15.5274C2.91892 16.1523 2.56407 18.3592 3.54712 19.6314C5.22925 21.8085 6.95277 24.781 8.34417 27.4019C10.2325 30.959 13.9594 33.3438 18.1039 33.3438M15.7665 9.48013V14.5938" stroke="#351C42" stroke-width="1.5" stroke-linecap="round" stroke-linejoin="round"/>
</svg>
