<svg width="36" height="36" viewBox="0 0 36 36" fill="none" xmlns="http://www.w3.org/2000/svg">
<path d="M15.1251 3C8.20925 4.40385 3.00391 10.5183 3.00391 17.8485C3.00391 26.2164 9.78748 33 18.1554 33C25.4856 33 31.6001 27.7947 33.0039 20.8788" stroke="#351C42" stroke-width="1.5" stroke-linecap="round"/>
<path d="M28.4102 27C28.9863 26.8749 29.5196 26.676 30.0039 26.4045M22.0352 26.0109C22.9286 26.4022 23.7903 26.6922 24.6116 26.8827M16.2858 22.4215C16.9061 22.857 17.5689 23.3792 18.2144 23.8298M4.50391 20.7375C4.98742 20.5012 5.50937 20.2302 6.09766 19.9981M9.68048 19.5C10.5233 19.5936 11.4684 19.8339 12.5401 20.2848" stroke="#351C42" stroke-width="1.5" stroke-linecap="round" stroke-linejoin="round"/>
<path d="M27.0039 11.25C27.0039 10.0074 25.9965 9 24.7539 9C23.5113 9 22.5039 10.0074 22.5039 11.25C22.5039 12.4926 23.5113 13.5 24.7539 13.5C25.9965 13.5 27.0039 12.4926 27.0039 11.25Z" stroke="#351C42" stroke-width="1.5"/>
<path d="M26.2359 20.4303C25.8384 20.7957 25.307 21 24.7541 21C24.2012 21 23.6699 20.7957 23.2724 20.4303C19.6322 17.0634 14.754 13.3022 17.1329 7.8417C18.4193 4.88923 21.5069 3 24.7541 3C28.0013 3 31.089 4.88923 32.3753 7.8417C34.7513 13.2953 29.885 17.075 26.2359 20.4303Z" stroke="#351C42" stroke-width="1.5"/>
</svg>
