<svg width="36" height="36" viewBox="0 0 36 36" fill="none" xmlns="http://www.w3.org/2000/svg">
<path d="M20.2023 6.03125C23.9586 6.03125 27.0034 9.04951 27.0034 12.7727C27.0034 16.4959 23.9586 19.5142 20.2023 19.5142C16.8693 19.5142 14.0963 17.1379 13.5137 14.0013" stroke="#351C42" stroke-width="1.5" stroke-linecap="round"/>
<path d="M33.0005 21.0156H29.411C28.97 21.0156 28.5351 21.1149 28.1408 21.3056L25.0803 22.7858C24.686 22.9764 24.2511 23.0756 23.8101 23.0756H22.2474C20.736 23.0756 19.5107 24.2607 19.5107 25.7226C19.5107 25.7816 19.5512 25.8336 19.6098 25.8498L23.4183 26.9024C24.1016 27.0911 24.8331 27.0254 25.4687 26.7179L28.7405 25.1358M19.5107 24.7608L12.6267 22.6469C11.4063 22.2668 10.0871 22.7174 9.32267 23.7755C8.76995 24.5405 8.995 25.6361 9.80027 26.1005L21.0651 32.5967C21.7815 33.0098 22.6269 33.1106 23.4149 32.8769L33.0005 30.0339" stroke="#351C42" stroke-width="1.5" stroke-linecap="round" stroke-linejoin="round"/>
<path d="M3.00684 6.77864C5.29792 5.88233 8.55768 3.69517 10.3395 3.24677C14.2885 2.45386 16.3602 3.62158 21.0366 6.03437C19.0685 6.07607 16.4226 7.2023 15.1205 9.77569M15.1205 9.77569H12.4442M15.1205 9.77569H17.0838C17.6744 9.81859 18.9468 10.1742 19.4372 11.3157C19.634 11.7737 19.6901 12.3181 19.3037 12.5932C18.7827 13.1306 18.035 13.1096 17.3717 13.2271M17.3717 13.2271C16.6104 13.362 15.8771 13.5119 15.1104 13.661M17.3717 13.2271L15.1104 13.661M15.1104 13.661C14.9412 13.6939 14.7703 13.7268 14.5972 13.7595M15.1104 13.661L14.5972 13.7595M14.5972 13.7595C13.4022 13.8929 10.4889 15.2867 9.07017 15.6768C8.58724 15.9075 4.71573 16.658 3.02805 16.5263" stroke="#351C42" stroke-width="1.5" stroke-linecap="round" stroke-linejoin="round"/>
</svg>
