<svg width="36" height="36" viewBox="0 0 36 36" fill="none" xmlns="http://www.w3.org/2000/svg">
<path d="M18.0039 13.5C16.347 13.5 15.0039 14.5074 15.0039 15.75C15.0039 16.9926 16.347 18 18.0039 18C19.6608 18 21.0039 19.0074 21.0039 20.25C21.0039 21.4926 19.6608 22.5 18.0039 22.5M18.0039 13.5C19.3101 13.5 20.4213 14.1261 20.8332 15M18.0039 13.5V12M18.0039 22.5C16.6977 22.5 15.5865 21.8739 15.1746 21M18.0039 22.5V24" stroke="#351C42" stroke-width="2.25" stroke-linecap="round"/>
<path d="M31.5039 16.775V12.4204C31.5039 9.96043 31.5039 8.73042 30.8978 7.92793C30.2916 7.12543 28.9211 6.73584 26.18 5.95665C24.3072 5.4243 22.6563 4.78295 21.3374 4.19744C19.539 3.39915 18.6399 3 18.0039 3C17.3679 3 16.4688 3.39915 14.6705 4.19744C13.3515 4.78295 11.7007 5.42429 9.8279 5.95665C7.0868 6.73584 5.71624 7.12543 5.11007 7.92793C4.50391 8.73042 4.50391 9.96043 4.50391 12.4204V16.775C4.50391 25.2127 12.0981 30.2752 15.8949 32.2791C16.8056 32.7597 17.2608 33 18.0039 33C18.747 33 19.2023 32.7597 20.1129 32.2791C23.9097 30.2752 31.5039 25.2127 31.5039 16.775Z" stroke="#351C42" stroke-width="2.25" stroke-linecap="round"/>
</svg>
