<svg width="36" height="36" viewBox="0 0 36 36" fill="none" xmlns="http://www.w3.org/2000/svg">
<path d="M5.87108 18H27.1368C29.541 18 30.4218 18.556 29.822 20.9731C28.7639 25.2369 25.7678 26.2959 22.9995 29.0789C22.3268 29.7554 23.3736 30.7548 23.3742 31.4988C23.3753 32.8995 22.0431 33 20.982 33H12.0258C10.9647 33 9.63253 32.8995 9.63364 31.4988C9.63421 30.7706 10.6497 29.7239 10.0083 29.0789C7.24001 26.2959 4.24402 25.2369 3.18583 20.9731C2.58595 18.556 3.46676 18 5.87108 18Z" stroke="#351C42" stroke-width="1.5" stroke-linejoin="round"/>
<path d="M27.7539 18C27.7539 15.3134 24.9041 13.4823 22.5039 14.5383M5.25391 18C5.25391 16.0601 6.70673 14.4619 8.57656 14.2483C7.35547 11.4875 9.94337 8.39108 12.8123 9.02574M12.8123 9.02574C13.5266 4.99142 19.4811 4.99142 20.1956 9.02574C23.1317 8.37623 25.6139 11.5233 24.4419 14.2241M12.8123 9.02574C13.7027 9.22272 14.4745 9.73832 15.0039 10.4478" stroke="#351C42" stroke-width="1.5" stroke-linecap="round" stroke-linejoin="round"/>
<path d="M25.5039 13.5L33.0039 4.5" stroke="#351C42" stroke-width="1.5" stroke-linecap="round" stroke-linejoin="round"/>
<path d="M24.0039 9L27.0039 3" stroke="#351C42" stroke-width="1.5" stroke-linecap="round" stroke-linejoin="round"/>
</svg>
