<svg width="101" height="101" viewBox="0 0 101 101" fill="none" xmlns="http://www.w3.org/2000/svg">
<g clip-path="url(#clip0_13654_2177)">
<path d="M100.321 49.1551L79.7317 38.1151H99.9264L92.5612 26.0149H71.2277L87.9602 16.3914C88.2173 16.2452 88.3735 15.9802 88.3735 15.6877C88.3735 15.3953 88.2265 15.1211 87.9786 14.9749L75.1491 7.1701C74.8828 7.0056 74.543 7.0056 74.2767 7.1701L54.3667 19.3891L64.4778 1.97909L50.2616 2.27154L39.5995 20.6411V1.42161C39.5995 1.12916 39.4433 0.864124 39.1862 0.708759C38.9291 0.553395 38.6168 0.553395 38.3689 0.690481L25.1537 7.84639C24.8782 7.99262 24.7129 8.28507 24.7221 8.5958L25.4108 31.8639L15.2997 14.4631L8.44877 26.8649L19.1109 45.2436L2.37842 35.6292C2.12128 35.483 1.80904 35.483 1.5519 35.6292C1.29476 35.7755 1.13864 36.0405 1.12946 36.333L0.75293 51.2845C0.75293 51.5953 0.918234 51.8877 1.19374 52.0339L21.8017 63.0831H1.58864L8.95387 75.1833H30.269L13.5548 84.7976C13.2977 84.9438 13.1416 85.2089 13.1416 85.5013C13.1416 85.7938 13.2885 86.0679 13.5365 86.2142L26.3659 94.0189C26.6323 94.1834 26.972 94.1834 27.2384 94.0189L47.1576 81.7908L37.0556 99.21L51.2718 98.9175L61.9339 80.5388V99.7674C61.9431 100.06 62.0992 100.325 62.3472 100.48C62.4758 100.553 62.6227 100.599 62.7696 100.599C62.9074 100.599 63.0452 100.563 63.1645 100.499L76.3705 93.3427C76.646 93.1964 76.8113 92.904 76.8022 92.5932L76.1134 69.3251L86.2153 86.7351L93.0663 74.3333L82.4041 55.9546L99.1366 65.5598C99.3938 65.706 99.706 65.706 99.9631 65.5598C100.22 65.4136 100.376 65.1485 100.386 64.8561L100.771 49.8954C100.771 49.5846 100.606 49.2922 100.33 49.146L100.321 49.1551ZM98.7509 63.4304L75.1399 49.8771C74.8736 49.7309 74.5614 49.7309 74.295 49.8771C74.0379 50.0325 73.8818 50.3158 73.891 50.6082L75.1124 92.118L63.5778 98.3692L63.5594 71.2352C63.5594 70.9336 63.3941 70.6594 63.137 70.5132C63.0084 70.4401 62.8707 70.4127 62.7329 70.4127C62.5768 70.4127 62.4299 70.4583 62.2921 70.5315L26.7792 92.3465L15.5844 85.5287L32.271 75.9327C32.271 75.9327 32.3169 75.9053 32.3444 75.8961L39.1862 71.9572C39.4433 71.8109 39.6087 71.5276 39.5995 71.226C39.5995 70.9244 39.425 70.6503 39.1587 70.5132L2.42434 50.8184L2.75495 37.7587L19.4599 47.3456C19.4599 47.3456 19.4966 47.373 19.5242 47.3821L26.3659 51.3028C26.6231 51.449 26.9537 51.449 27.2108 51.3028C27.468 51.1474 27.6241 50.8641 27.6149 50.5717L26.3935 9.07103L37.9372 2.81989V29.9447C37.9372 30.2463 38.1117 30.5205 38.3689 30.6667C38.6352 30.8129 38.9566 30.8038 39.2138 30.6484L53.935 21.619C53.935 21.619 53.9993 21.5733 54.0361 21.5459L74.7358 8.84256L85.9306 15.6512L62.3288 29.2227C62.0717 29.369 61.9064 29.6523 61.9156 29.9539C61.9156 30.2555 62.0901 30.5296 62.3564 30.6667L77.5828 38.8371C77.5828 38.8371 77.6287 38.8645 77.6562 38.8736L99.0999 50.3706L98.7693 63.4395L98.7509 63.4304Z" fill="#351C42"/>
</g>
<defs>
<clipPath id="clip0_13654_2177">
<rect width="100" height="100" fill="white" transform="translate(0.75293 0.597656)"/>
</clipPath>
</defs>
</svg>
