<svg width="101" height="101" viewBox="0 0 101 101" fill="none" xmlns="http://www.w3.org/2000/svg">
<g clip-path="url(#clip0_13654_2191)">
<path d="M85.8502 14.7064C76.4187 5.2565 63.8556 0.0585938 50.5026 0.0585938C37.1497 0.0585938 24.5866 5.2565 15.1459 14.7064C5.69595 24.1471 0.498047 36.7011 0.498047 50.0632C0.498047 63.4253 5.69595 75.9701 15.1459 85.42C24.5866 94.8607 37.1497 100.068 50.5026 100.068C63.8556 100.068 76.4187 94.8699 85.8594 85.42C95.3001 75.9792 100.507 63.4161 100.507 50.0632C100.507 36.7103 95.3093 24.1471 85.8594 14.7064H85.8502ZM98.5144 49.0805H98.3675C92.8573 49.0805 88.2747 45.003 87.4114 39.5572C85.9237 30.2542 82.4523 21.7043 77.282 14.8074C77.1626 14.6513 77.034 14.4952 76.9146 14.3391C78.1911 13.8156 79.4493 13.2646 80.6615 12.6585C81.9839 13.7238 83.2605 14.8625 84.4727 16.0839C93.3165 24.9277 98.2664 36.6092 98.5144 49.0714V49.0805ZM75.0044 85.0251C72.5432 84.1159 69.9718 83.3445 67.3086 82.72C70.6606 73.9038 72.534 62.8192 72.6351 51.0366H73.8197C80.9095 51.0366 86.2451 57.6305 84.6288 64.5365C82.8197 72.2507 79.5595 79.2853 75.032 85.0251H75.0136H75.0044ZM25.9733 85.0251C21.4366 79.2853 18.1764 72.2507 16.3673 64.5365C14.751 57.6305 20.0866 51.0458 27.1763 51.0458H28.361C28.462 62.8284 30.3355 73.9129 33.6875 82.7292C31.0151 83.3537 28.4529 84.1251 25.9917 85.0343H25.9733V85.0251ZM25.9917 15.0921C28.4529 16.0013 31.0243 16.7727 33.6875 17.3972C30.3355 26.2134 28.462 37.298 28.361 49.0805H27.1763C20.0866 49.0805 14.751 42.4867 16.3673 35.5899C18.1764 27.8757 21.4366 20.841 25.9733 15.1013H25.9917V15.0921ZM30.3263 51.0917C35.3405 51.3397 40.0242 53.3785 43.6058 56.9601C47.417 60.7712 49.52 65.8498 49.52 71.2405V80.8557C44.7813 80.9108 40.1252 81.4159 35.6344 82.3251C32.3008 73.7017 30.4273 62.7549 30.3263 51.0917ZM49.52 17.3054C45.0292 17.2503 40.6211 16.7819 36.3691 15.937C36.3875 15.8911 36.4058 15.8268 36.4334 15.7809C40.0334 7.46056 44.6435 2.63918 49.5292 2.0698V17.3054H49.52ZM35.6344 17.8013C40.1252 18.7196 44.7721 19.2155 49.52 19.2706V28.8858C49.52 34.2858 47.417 39.3551 43.6058 43.1663C40.0242 46.7479 35.3405 48.7867 30.3263 49.0346C30.4273 37.3715 32.3008 26.4247 35.6344 17.8013ZM49.52 82.8118V98.0382C44.6435 97.4688 40.0242 92.6566 36.4242 84.3271C36.4058 84.272 36.3875 84.2169 36.3599 84.171C40.6119 83.3261 45.02 82.8669 49.52 82.8118ZM51.4761 82.8118C55.9669 82.8669 60.375 83.3353 64.6362 84.171C64.6178 84.2261 64.5994 84.2812 64.5719 84.3271C60.9719 92.6474 56.3618 97.4688 51.4761 98.0382V82.8118ZM65.3617 82.3251C60.8801 81.4159 56.224 80.9108 51.4761 80.8557V71.2405C51.4761 65.8406 53.5791 60.7712 57.3903 56.9601C60.9719 53.3876 65.6555 51.3397 70.6698 51.0917C70.5688 62.7549 68.6953 73.7017 65.3617 82.3251ZM57.3903 43.1663C53.5791 39.3551 51.4761 34.2766 51.4761 28.8858V19.2706C56.2148 19.2155 60.8709 18.7104 65.3617 17.8013C68.6953 26.4247 70.5688 37.3715 70.6698 49.0346C65.6555 48.7867 60.9719 46.7479 57.3903 43.1663ZM51.4761 17.3054V2.07898C56.3618 2.64836 60.9719 7.46974 64.5719 15.7901C64.5902 15.836 64.6086 15.9003 64.6362 15.9462C60.375 16.7911 55.9761 17.2503 51.4853 17.3145L51.4761 17.3054ZM66.3719 15.0095C64.076 9.69217 61.3209 5.69731 58.3087 3.18101C63.9658 4.87079 69.2188 8.37892 73.6912 13.5034C71.4228 14.3115 69.0535 15.0003 66.5923 15.5605C66.5188 15.386 66.4545 15.184 66.381 15.0095H66.3719ZM34.6242 15.0095C34.5508 15.184 34.4865 15.3768 34.413 15.5605C31.961 15.0003 29.5916 14.3115 27.3141 13.5034C31.7773 8.37892 37.0395 4.87079 42.6874 3.18101C39.666 5.69731 36.9201 9.69217 34.6242 15.0095ZM34.413 84.5659C34.4865 84.7404 34.5508 84.9424 34.6242 85.1169C36.9201 90.4342 39.666 94.4291 42.6874 96.9454C37.0303 95.2648 31.7773 91.7475 27.3049 86.623C29.5824 85.8149 31.9518 85.1261 34.4038 84.5659H34.413ZM66.3719 85.1077C66.4453 84.9332 66.5096 84.7404 66.5831 84.5567C69.0351 85.1169 71.4045 85.8057 73.682 86.6138C69.2188 91.7383 63.9566 95.2464 58.2995 96.9362C61.3209 94.4199 64.0668 90.425 66.3627 85.1077H66.3719ZM72.6351 49.0805C72.534 37.298 70.6606 26.2042 67.3086 17.3972C69.981 16.7727 72.5432 16.0013 75.0044 15.0921H75.0228C79.5595 20.841 82.8197 27.8665 84.6288 35.5807C86.2451 42.4867 80.9095 49.0805 73.8197 49.0805H72.6351ZM78.9166 11.3177C77.8513 11.8228 76.7493 12.3003 75.6289 12.7411C72.8647 9.46258 69.7882 6.78097 66.5004 4.74222C70.9269 6.30343 75.1054 8.50749 78.9166 11.3177ZM25.3764 12.7411C24.256 12.3003 23.1539 11.8228 22.0886 11.3177C25.8998 8.50749 30.0784 6.30343 34.5048 4.74222C31.2171 6.78097 28.1406 9.47176 25.3764 12.7411ZM16.5326 16.0931C17.754 14.8717 19.0305 13.7329 20.3438 12.6676C21.556 13.2646 22.805 13.8248 24.0815 14.3482C23.9621 14.5044 23.8335 14.6513 23.7141 14.8166C18.5438 21.7135 15.0724 30.2634 13.5846 39.5664C12.7122 45.0122 8.13878 49.0897 2.62864 49.0897H2.4817C2.72966 36.6276 7.68879 24.9461 16.5326 16.1023V16.0931ZM2.4817 51.0366H2.62864C8.13878 51.0366 12.7122 55.1142 13.5846 60.56C15.0724 69.863 18.5346 78.4129 23.7141 85.3098C23.8335 85.4659 23.9621 85.622 24.0815 85.7781C22.805 86.3016 21.5468 86.8526 20.3438 87.4587C19.0213 86.3934 17.7448 85.2547 16.5326 84.0332C7.68879 75.1895 2.73884 63.5079 2.4817 51.0458V51.0366ZM22.0886 88.7995C23.1539 88.2944 24.256 87.8169 25.3764 87.3761C28.1406 90.6546 31.2079 93.3362 34.5048 95.375C30.0875 93.8138 25.909 91.6097 22.0886 88.7995ZM75.6289 87.3761C76.7493 87.8169 77.8513 88.2944 78.9166 88.7995C75.1054 91.6097 70.9269 93.8138 66.5004 95.375C69.7882 93.3362 72.8647 90.6454 75.6289 87.3761ZM84.4727 84.0332C83.2513 85.2547 81.9748 86.3934 80.6615 87.4587C79.4493 86.8618 78.2003 86.3016 76.9146 85.7781C77.034 85.622 77.1626 85.4751 77.282 85.3098C82.4523 78.4129 85.9237 69.863 87.4114 60.56C88.2839 55.1142 92.8573 51.0366 98.3675 51.0366H98.5144C98.2664 63.4988 93.3073 75.1803 84.4727 84.0241V84.0332Z" fill="#351C42"/>
</g>
<defs>
<clipPath id="clip0_13654_2191">
<rect width="100" height="100" fill="white" transform="translate(0.498047 0.0585938)"/>
</clipPath>
</defs>
</svg>
