<svg width="101" height="101" viewBox="0 0 101 101" fill="none" xmlns="http://www.w3.org/2000/svg">
<g clip-path="url(#clip0_13654_2168)">
<mask id="mask0_13654_2168" style="mask-type:luminance" maskUnits="userSpaceOnUse" x="0" y="0" width="101" height="101">
<path d="M100.461 0.503906H0.460938V100.504H100.461V0.503906Z" fill="white"/>
</mask>
<g mask="url(#mask0_13654_2168)">
<path d="M12.9717 27.1211H12.9736C14.5158 27.1177 16.0432 27.4201 17.4678 28.0107C18.8924 28.6014 20.1861 29.4687 21.2734 30.5625L21.2793 30.5684L40.8027 49.8076H40.8037C40.8958 49.8983 40.9688 50.007 41.0186 50.126C41.0683 50.2449 41.0938 50.3729 41.0938 50.502C41.0937 50.5988 41.0791 50.6948 41.0508 50.7871L41.0186 50.8779C40.9689 50.9968 40.8951 51.1043 40.8027 51.1953L21.2793 70.4355L21.2744 70.4395C19.0722 72.6446 16.084 73.8848 12.9678 73.8867C9.85162 73.8885 6.86203 72.6525 4.65723 70.4502C2.4523 68.2478 1.21286 65.2596 1.21094 62.1436C1.20904 59.027 2.44518 56.0373 4.64746 53.832L4.66504 53.8145L7.28223 51.0137L7.75977 50.5029L7.2832 49.9902L4.65723 47.1699L4.63965 47.1523C3.0025 45.507 1.88973 43.4131 1.44141 41.1357C0.993149 38.8584 1.22973 36.4995 2.12109 34.3564C3.0125 32.2133 4.51898 30.3825 6.4502 29.0947C8.38131 27.8071 10.6506 27.1201 12.9717 27.1211ZM87.9541 27.1221C91.0701 27.1202 94.06 28.3555 96.2646 30.5576C98.4694 32.7598 99.709 35.748 99.7109 38.8643C99.7128 41.9805 98.4767 44.9699 96.2744 47.1748L96.2656 47.1836L96.2568 47.1934L93.6396 49.9941L93.1621 50.5049L93.6387 51.0166L96.2646 53.8379L96.2822 53.8555C97.9192 55.5009 99.0321 57.5945 99.4805 59.8721C99.9007 62.0072 99.7198 64.2138 98.9609 66.2471L98.8008 66.6514C97.9098 68.7943 96.4037 70.6253 94.4727 71.9131C92.5415 73.2008 90.2715 73.8877 87.9502 73.8867H87.9482C86.4059 73.89 84.8782 73.5877 83.4531 72.9971H83.4541C82.0299 72.4066 80.7361 71.5391 79.6484 70.4453L79.6426 70.4395L60.1191 51.2002C60.0271 51.1096 59.9538 51.0011 59.9043 50.8828L59.9033 50.8818L59.8711 50.791C59.8428 50.6988 59.8281 50.6029 59.8281 50.5059C59.8281 50.3772 59.8535 50.2496 59.9033 50.1309L59.9043 50.1289C59.9536 50.0109 60.0262 49.903 60.1182 49.8125H60.1191L79.6426 30.5723L79.6475 30.5684C81.8499 28.3635 84.8376 27.124 87.9541 27.1221ZM38.8213 1.25391C41.9376 1.25201 44.9269 2.48823 47.1318 4.69043L47.1494 4.70801L49.9512 7.3252L50.4619 7.80273L50.9736 7.32617L53.7939 4.7002L53.8115 4.68262C55.4569 3.04547 57.5511 1.93273 59.8281 1.48438C62.1057 1.03604 64.4652 1.27266 66.6084 2.16406C68.7515 3.05545 70.5823 4.56193 71.8701 6.49316C73.1577 8.42427 73.8447 10.6936 73.8438 13.0146V13.0166C73.847 14.5588 73.5449 16.0864 72.9541 17.5107H72.9531C72.4364 18.7573 71.7085 19.904 70.8018 20.8994L70.4023 21.3164L70.3965 21.3223L51.1562 40.8457C51.088 40.9149 51.0107 40.9737 50.9258 41.0195L50.8389 41.0615C50.7204 41.1112 50.592 41.1367 50.4629 41.1367C50.3338 41.1367 50.206 41.1113 50.0869 41.0615C49.9679 41.0117 49.8601 40.9385 49.7695 40.8467L49.7686 40.8457L30.5293 21.3223L30.5254 21.3174L30.123 20.8955C28.1701 18.7413 27.0799 15.9323 27.0781 13.0107C27.0764 9.89457 28.3125 6.90501 30.5146 4.7002C32.7169 2.49531 35.705 1.25581 38.8213 1.25391ZM27.0781 87.9912C27.0747 86.4491 27.3772 84.9219 27.9678 83.4971C28.5584 82.0728 29.4258 80.779 30.5195 79.6914L30.5254 79.6855L49.7656 60.1621V60.1611C49.8562 60.0691 49.964 59.9966 50.082 59.9473L50.084 59.9463C50.2027 59.8965 50.3301 59.8711 50.459 59.8711C50.588 59.8711 50.7159 59.8966 50.834 59.9463L50.8359 59.9473C50.9545 59.9968 51.0618 60.0699 51.1514 60.1611L51.1523 60.1621L70.3926 79.6855L70.3965 79.6904C72.6013 81.8929 73.8419 84.8805 73.8438 87.9971C73.8456 91.1131 72.6091 94.1029 70.4072 96.3076C68.2048 98.5123 65.217 99.752 62.1006 99.7539C58.9845 99.7558 55.9948 98.5197 53.79 96.3174L53.7725 96.2998L50.9707 93.6826L50.46 93.2051L49.9482 93.6816L47.1279 96.3076L47.1182 96.3164L47.1094 96.3252C45.4641 97.962 43.371 99.075 41.0938 99.5234C38.8163 99.9718 36.4565 99.7353 34.3135 98.8438C32.1705 97.9527 30.3395 96.4467 29.0518 94.5156C27.7641 92.5844 27.0771 90.3145 27.0781 87.9932V87.9912Z" stroke="#351C42" stroke-width="1.5"/>
<path d="M38.8215 1.00391C42.004 1.00206 45.0571 2.26467 47.3088 4.51367L47.3206 4.52539L50.1213 7.14258L50.4622 7.46094L50.804 7.14355L53.6233 4.5166L53.6301 4.51172L53.636 4.50586C55.3164 2.83383 57.4549 1.69713 59.7805 1.23926C62.1064 0.781503 64.5158 1.02236 66.7043 1.93262C68.8931 2.84298 70.7632 4.38215 72.0784 6.35449C73.3933 8.32668 74.094 10.6443 74.093 13.0146V13.0156C74.0964 14.5909 73.7884 16.1514 73.1848 17.6064C72.5816 19.0616 71.6955 20.3835 70.5784 21.4941L70.5745 21.4971L51.3352 41.0215C51.2211 41.1372 51.0854 41.2294 50.9358 41.292H50.9348C50.7858 41.3544 50.6252 41.3867 50.4631 41.3867C50.3009 41.3867 50.1401 41.3546 49.9905 41.292C49.8782 41.245 49.7741 41.181 49.6809 41.1035L49.5911 41.0215L30.3508 21.4971L30.3479 21.4941C28.0964 19.2452 26.8304 16.194 26.8284 13.0117C26.8264 9.82908 28.089 6.77527 30.3381 4.52344C32.5872 2.27178 35.6391 1.00585 38.8215 1.00391ZM26.8284 87.9922C26.8249 86.4169 27.1342 84.8568 27.7375 83.4014C28.3409 81.9464 29.2267 80.6246 30.344 79.5137L30.3469 79.5107L49.5872 59.9863C49.7009 59.8707 49.8367 59.779 49.9856 59.7168L49.9866 59.7158C50.1361 59.6531 50.297 59.6211 50.4592 59.6211C50.6213 59.6211 50.7821 59.6532 50.9309 59.7158L50.9319 59.7168C51.0813 59.7791 51.2172 59.8702 51.3303 59.9854L51.3313 59.9863L70.5706 79.5107L70.5735 79.5127C72.8252 81.762 74.0911 84.8142 74.093 87.9971C74.0948 91.1794 72.8329 94.2328 70.5842 96.4844C68.335 98.7359 65.2836 100.002 62.1008 100.004C58.9185 100.006 55.8652 98.7433 53.6135 96.4941L53.6018 96.4824L50.8 93.8652L50.4592 93.5469L50.1184 93.8643L47.2981 96.4912L47.2864 96.5029C45.606 98.1746 43.4676 99.3106 41.1418 99.7686C38.8161 100.226 36.4066 99.9856 34.218 99.0752C32.0294 98.1652 30.1591 96.6264 28.844 94.6543C27.5289 92.682 26.8273 90.3639 26.8284 87.9932V87.9922Z" fill="#351C42" stroke="#351C42"/>
</g>
</g>
<defs>
<clipPath id="clip0_13654_2168">
<rect width="100" height="100" fill="white" transform="translate(0.460938 0.503906)"/>
</clipPath>
</defs>
</svg>
