<svg width="36" height="37" viewBox="0 0 36 37" fill="none" xmlns="http://www.w3.org/2000/svg">
<path fill-rule="evenodd" clip-rule="evenodd" d="M14.1278 29.697C14.5445 28.9254 13.8566 27.9828 12.9913 28.1948C12.7081 28.2641 12.5233 28.4205 12.3584 28.674L11.3134 30.421C10.852 31.1924 11.5437 32.1789 12.4278 31.9622C12.7109 31.8928 12.8956 31.7365 13.0606 31.483L14.0942 29.7555L14.128 29.697H14.1278ZM20.0737 7.16181C20.1257 7.10861 20.1878 7.06627 20.2563 7.03722C20.3248 7.00817 20.3983 6.993 20.4727 6.99259C20.5471 6.99217 20.6209 7.00652 20.6897 7.0348C20.7585 7.06307 20.821 7.10472 20.8736 7.15733C20.9262 7.20994 20.9679 7.27246 20.9962 7.34127C21.0244 7.41009 21.0388 7.48383 21.0384 7.55823C21.0379 7.63262 21.0228 7.7062 20.9937 7.77469C20.9647 7.84319 20.9223 7.90524 20.8691 7.95725L17.5794 11.2468C17.4739 11.3523 17.3308 11.4115 17.1816 11.4115C17.0325 11.4115 16.8894 11.3523 16.7839 11.2468L15.139 9.602C15.0361 9.49601 14.979 9.35376 14.98 9.20601C14.9811 9.05825 15.0403 8.91685 15.1448 8.81236C15.2492 8.70788 15.3906 8.64869 15.5384 8.64761C15.6861 8.64652 15.8284 8.70362 15.9344 8.80656L17.1814 10.0538L20.0735 7.16167L20.0737 7.16181ZM17.9368 16.8105C18.4571 16.5174 19.9786 15.5771 21.4572 13.8689C21.487 13.8212 21.5239 13.7782 21.5664 13.7414C23.1555 11.8618 24.6643 9.08844 24.7904 5.26878C22.3413 5.02435 20.0002 4.13724 18.004 2.69724C16.0077 4.13734 13.6662 5.02441 11.2168 5.26864C11.3042 7.91352 12.0561 10.056 13.039 11.747C13.4703 12.4882 13.9651 13.1907 14.5177 13.8466C14.5951 13.9008 14.6575 13.9736 14.6994 14.0583C15.1943 14.6248 15.7313 15.1531 16.3059 15.6387C16.3848 15.6589 16.4583 15.6961 16.5215 15.7476C16.5846 15.799 16.6358 15.8636 16.6715 15.9369C17.0722 16.2576 17.4951 16.5495 17.9371 16.8105H17.9368ZM25.9249 4.75142C25.9249 8.75565 24.5178 11.7434 22.9094 13.8512C24.2286 14.229 25.6041 14.6358 27.1959 14.1504L26.892 13.1667C26.8703 13.0963 26.8628 13.0223 26.8697 12.949C26.8767 12.8757 26.898 12.8044 26.9325 12.7393C26.9669 12.6742 27.0139 12.6166 27.0707 12.5696C27.1274 12.5227 27.1929 12.4874 27.2633 12.4658L31.9953 11.0078C32.0677 10.9945 32.1421 10.9956 32.2141 11.011C32.2861 11.0265 32.3543 11.056 32.4149 11.0978C32.4755 11.1396 32.5273 11.193 32.5673 11.2548C32.6072 11.3166 32.6346 11.3858 32.6479 11.4582L34.7244 22.6052C34.7534 22.7423 34.7302 22.8853 34.6591 23.006C34.5881 23.1268 34.4744 23.2166 34.3405 23.2577L30.923 24.3138C30.8526 24.3355 30.7786 24.343 30.7053 24.3361C30.6319 24.3292 30.5607 24.3078 30.4956 24.2734C30.4305 24.2389 30.3729 24.1919 30.3259 24.1351C30.279 24.0784 30.2437 24.0129 30.222 23.9425L30.0674 23.441L28.1217 24.0246C28.2614 24.2754 28.3439 24.554 28.3631 24.8405C28.3824 25.1269 28.3379 25.4141 28.2331 25.6814C28.1282 25.9486 27.9654 26.1893 27.7564 26.3862C27.5475 26.5831 27.2975 26.7313 27.0245 26.8201C27.5593 28.2213 26.5675 29.8594 24.8966 29.7351C25.0583 30.8792 24.3056 31.8463 23.1208 31.9842C23.1703 32.3265 23.123 32.6758 22.9843 32.9927C22.8455 33.3095 22.6209 33.5813 22.3359 33.7771C21.7554 34.1716 20.8826 34.2818 19.7643 33.748L19.3979 33.573L19.1245 34.0327C18.3386 35.3112 16.43 35.1371 15.867 33.7643C15.3982 33.9673 14.8688 33.9794 14.3913 33.7979C13.9138 33.6163 13.526 33.2556 13.3105 32.7925C11.9113 33.658 10.1104 32.688 10.048 31.0293C9.58583 31.0729 9.12156 30.9709 8.72013 30.7377C7.80459 30.1896 7.59513 28.9488 8.12676 28.0596L8.80661 26.9229C8.47118 26.4585 8.15976 25.9773 7.87356 25.481C7.38946 24.6673 6.98383 23.9858 5.99418 23.2694L5.78606 23.9431C5.76441 24.0135 5.72911 24.0789 5.68218 24.1357C5.63524 24.1925 5.57758 24.2394 5.51249 24.2739C5.4474 24.3084 5.37616 24.3297 5.30283 24.3367C5.2295 24.3436 5.15552 24.336 5.08511 24.3144L1.66736 23.2579C1.53346 23.2167 1.41983 23.1268 1.34883 23.006C1.27784 22.8853 1.25461 22.7423 1.28374 22.6052L3.36013 11.4582C3.37478 11.3805 3.4056 11.3068 3.4506 11.2418C3.4956 11.1769 3.55377 11.1221 3.62132 11.0811C3.68888 11.04 3.76431 11.0137 3.84271 11.0037C3.92112 10.9938 4.00074 11.0004 4.07641 11.0232L8.74516 12.4658C8.81556 12.4874 8.88102 12.5227 8.93778 12.5696C8.99455 12.6166 9.04151 12.6742 9.07599 12.7393C9.11047 12.8044 9.13179 12.8757 9.13874 12.949C9.14569 13.0223 9.13812 13.0963 9.11648 13.1667L8.90688 13.8449C10.5468 14.3895 11.7607 14.0793 13.1206 13.8672C11.2696 11.4836 10.0836 8.39994 10.0836 4.75142H10.0848C10.0848 4.60828 10.1395 4.47054 10.2377 4.36639C10.3359 4.26224 10.4702 4.19953 10.6131 4.1911C11.8864 4.11433 13.1412 3.84813 14.3361 3.40128C15.5278 2.95523 16.6465 2.33437 17.6556 1.5591C17.7538 1.48116 17.8752 1.43835 18.0006 1.43751C18.1259 1.43667 18.248 1.47784 18.3472 1.55446C19.3578 2.33201 20.4787 2.95453 21.673 3.40149C22.8569 3.84423 24.0998 4.10959 25.3613 4.18899C25.4354 4.18864 25.5088 4.20294 25.5773 4.23106C25.6458 4.25919 25.708 4.30058 25.7604 4.35286C25.8129 4.40514 25.8544 4.46728 25.8828 4.5357C25.9111 4.60411 25.9256 4.67745 25.9255 4.75149L25.9249 4.75142ZM22.1251 14.7977C23.8197 15.2627 25.4416 15.8722 27.5275 15.2233L29.7353 22.3678L27.1559 23.1412L19.1262 18.5938C19.0422 18.5463 18.9474 18.5212 18.8509 18.5209C18.7543 18.5207 18.6594 18.5453 18.5751 18.5924V18.5917C18.352 18.7174 17.9017 18.9764 17.4712 19.2245C14.7384 20.7965 13.028 21.7798 11.334 20.4637C12.9044 19.6402 14.825 18.1673 16.2403 16.8786C17.2634 17.624 18.004 17.9732 18.004 17.9732C18.1119 17.9734 18.2174 17.9424 18.3081 17.884C18.6198 17.7196 20.377 16.745 22.1251 14.7977ZM15.3442 16.1759C13.9621 17.4191 11.6098 19.2293 10.1481 19.7781C10.0622 19.8102 9.98554 19.8628 9.92475 19.9314C9.86395 20 9.82091 20.0825 9.7994 20.1716C9.77788 20.2607 9.77855 20.3537 9.80134 20.4425C9.82414 20.5313 9.86836 20.6131 9.93013 20.6809C12.4333 23.414 14.4949 22.2277 18.0287 20.1957C18.2492 20.0691 18.4774 19.9376 18.8498 19.7268L26.7861 24.2214C27.0013 24.351 27.1369 24.486 27.2095 24.7356C27.2408 24.8388 27.2515 24.9471 27.2409 25.0545C27.2303 25.1618 27.1987 25.266 27.1478 25.3611C27.0969 25.4562 27.0277 25.5403 26.9443 25.6087C26.8608 25.677 26.7647 25.7282 26.6615 25.7594C26.4393 25.8244 26.2639 25.7925 26.0534 25.691L20.6119 22.5893C20.4825 22.5159 20.3293 22.4968 20.1859 22.5364C20.0425 22.5759 19.9206 22.6708 19.8472 22.8002C19.7738 22.9296 19.7548 23.0828 19.7943 23.2262C19.8339 23.3696 19.9288 23.4914 20.0582 23.5649L25.4909 26.6616C25.7395 26.7983 25.924 27.0276 26.0045 27.2996C26.085 27.5717 26.0549 27.8645 25.9207 28.1144C25.5337 28.8191 24.7536 28.6992 23.9845 28.2828L23.8425 28.2035L18.447 25.1279C18.383 25.0916 18.3124 25.0682 18.2393 25.0591C18.1662 25.05 18.092 25.0554 18.021 25.075C17.95 25.0946 17.8836 25.128 17.8254 25.1733C17.7673 25.2185 17.7187 25.2748 17.6824 25.3389C17.646 25.4029 17.6226 25.4735 17.6136 25.5466C17.6045 25.6197 17.6099 25.6939 17.6295 25.7649C17.6491 25.8359 17.6824 25.9023 17.7277 25.9604C17.773 26.0185 17.8292 26.0671 17.8933 26.1035L23.2998 29.1853C23.5202 29.3054 23.6842 29.5079 23.7558 29.7485C23.8274 29.9892 23.8009 30.2484 23.6819 30.4695C23.4437 30.9044 22.7257 30.9898 22.2798 30.7367L16.8235 27.6269C16.6941 27.5535 16.5409 27.5344 16.3975 27.574C16.2541 27.6136 16.1323 27.7085 16.0589 27.8378C15.9854 27.9672 15.9664 28.1204 16.006 28.2638C16.0455 28.4072 16.1404 28.5291 16.2698 28.6025L21.7054 31.7009L21.7527 31.7282C22.3214 32.071 22.029 33.5837 20.2472 32.7331L19.8838 32.5597C20.1501 31.2652 19.0139 30.0911 17.7127 30.3651C17.661 30.107 17.5581 29.8618 17.4099 29.6441C17.2617 29.4265 17.0714 29.2408 16.8501 29.0981C16.6289 28.9554 16.3812 28.8586 16.1218 28.8134C15.8624 28.7682 15.5966 28.7755 15.3401 28.8349C15.2904 28.5327 15.1763 28.2447 15.0056 27.9904C14.8348 27.7361 14.6114 27.5215 14.3505 27.3612C14.0896 27.2008 13.7972 27.0984 13.4932 27.0608C13.1892 27.0233 12.8807 27.0516 12.5886 27.1437C12.5121 26.8318 12.3603 26.5434 12.1464 26.3037C11.9326 26.0641 11.6633 25.8805 11.3621 25.769C11.0609 25.6576 10.7369 25.6216 10.4186 25.6643C10.1003 25.7071 9.79726 25.8272 9.5361 26.0141C8.47488 24.4805 8.24495 23.3948 6.34145 22.1452L8.57458 14.919C10.2657 15.4815 11.5494 15.2666 12.8177 15.0541C13.2079 14.9887 13.5966 14.9236 13.9884 14.8859C14.4142 15.3425 14.8669 15.7731 15.3442 16.1756V16.1759ZM7.87855 13.3722L4.34753 12.281L2.4749 22.3333L4.87959 23.0765L7.87855 13.3722ZM18.6773 32.5927C18.6879 32.5715 18.6999 32.5511 18.7131 32.5314C18.8936 32.2334 18.796 31.7656 18.4505 31.5531C18.3702 31.5038 18.2809 31.4711 18.1878 31.4569C18.0947 31.4427 17.9998 31.4473 17.9085 31.4704C17.8172 31.4935 17.7314 31.5347 17.6563 31.5915C17.5812 31.6482 17.5182 31.7195 17.4711 31.801L16.9555 32.6599C16.6197 33.2365 17.1218 33.9107 17.7355 33.7603C17.9413 33.7099 18.0674 33.5966 18.1859 33.4142L18.6773 32.5927ZM11.4202 28.055L10.5343 29.5392C10.2832 29.9588 9.75688 30.0082 9.33719 29.7986C8.9407 29.6006 8.85906 29.0208 9.08941 28.6354L9.97014 27.1659C10.0271 27.0722 10.1021 26.9909 10.1907 26.9264C10.2793 26.8619 10.3798 26.8156 10.4864 26.7902C10.593 26.7648 10.7035 26.7607 10.8117 26.7783C10.9199 26.7958 11.0235 26.8346 11.1166 26.8924C11.5257 27.1438 11.6417 27.6995 11.4204 28.0547L11.4202 28.055ZM16.53 31.1852L16.4902 31.2531L15.8185 32.3762C15.6794 32.5895 15.5287 32.7212 15.2889 32.78C14.552 32.9605 13.9761 32.1369 14.3608 31.4944L15.0552 30.3336C15.1939 30.1203 15.3452 29.9884 15.5847 29.9297C16.3072 29.7526 16.8802 30.5422 16.5304 31.1852H16.53ZM31.6606 12.281L28.1295 13.3722L31.1285 23.0763L33.5332 22.3332L31.6606 12.281Z" fill="#351C42"/>
</svg>
