<svg width="36" height="37" viewBox="0 0 36 37" fill="none" xmlns="http://www.w3.org/2000/svg">
<path d="M29.9669 21.668H6.04091C4.91791 21.668 4.00391 20.754 4.00391 19.631V17.705C4.00391 16.582 4.91791 15.668 6.04091 15.668H29.9669C31.0899 15.668 32.0039 16.582 32.0039 17.705V19.631C32.0039 20.754 31.0899 21.668 29.9669 21.668ZM6.04091 16.668C5.46941 16.668 5.00391 17.1335 5.00391 17.705V19.631C5.00391 20.2025 5.46941 20.668 6.04091 20.668H29.9669C30.5384 20.668 31.0039 20.2025 31.0039 19.631V17.705C31.0039 17.1335 30.5384 16.668 29.9669 16.668H6.04091Z" fill="#351C42"/>
<path d="M27.2239 34.668H8.78391C7.52641 34.668 6.50391 33.6455 6.50391 32.388V21.168C6.50391 20.892 6.72791 20.668 7.00391 20.668H29.0039C29.2799 20.668 29.5039 20.892 29.5039 21.168V32.388C29.5039 33.6455 28.4814 34.668 27.2239 34.668ZM7.50391 21.668V32.388C7.50391 33.0935 8.07791 33.668 8.78391 33.668H27.2239C27.9294 33.668 28.5039 33.094 28.5039 32.388V21.668H7.50391Z" fill="#351C42"/>
<path d="M18.0039 26.168C17.7279 26.168 17.5039 25.944 17.5039 25.668C17.5039 24.565 16.6069 23.668 15.5039 23.668C14.4009 23.668 13.5039 24.565 13.5039 25.668C13.5039 25.944 13.2799 26.168 13.0039 26.168C12.7279 26.168 12.5039 25.944 12.5039 25.668C12.5039 24.0135 13.8494 22.668 15.5039 22.668C17.1584 22.668 18.5039 24.0135 18.5039 25.668C18.5039 25.944 18.2799 26.168 18.0039 26.168Z" fill="#351C42"/>
<path d="M23.0039 26.168C22.7279 26.168 22.5039 25.944 22.5039 25.668C22.5039 24.565 21.6069 23.668 20.5039 23.668C19.4009 23.668 18.5039 24.565 18.5039 25.668C18.5039 25.944 18.2799 26.168 18.0039 26.168C17.7279 26.168 17.5039 25.944 17.5039 25.668C17.5039 24.0135 18.8494 22.668 20.5039 22.668C22.1584 22.668 23.5039 24.0135 23.5039 25.668C23.5039 25.944 23.2799 26.168 23.0039 26.168Z" fill="#351C42"/>
<path d="M18.0039 32.668C17.9299 32.668 17.8559 32.6515 17.7869 32.6185C17.5714 32.5145 12.5039 30.027 12.5039 25.668C12.5039 25.392 12.7279 25.168 13.0039 25.168C13.2799 25.168 13.5039 25.392 13.5039 25.668C13.5039 28.937 17.0769 31.098 18.0034 31.604C18.9294 31.097 22.5039 28.929 22.5039 25.668C22.5039 25.392 22.7279 25.168 23.0039 25.168C23.2799 25.168 23.5039 25.392 23.5039 25.668C23.5039 30.027 18.4364 32.5145 18.2209 32.6185C18.1519 32.6515 18.0779 32.668 18.0039 32.668Z" fill="#351C42"/>
<path d="M18.0039 9.16797C16.9009 9.16797 16.0039 8.27097 16.0039 7.16797C16.0039 6.06497 16.9009 5.16797 18.0039 5.16797C19.1069 5.16797 20.0039 6.06497 20.0039 7.16797C20.0039 7.44397 19.7799 7.66797 19.5039 7.66797C19.2279 7.66797 19.0039 7.44397 19.0039 7.16797C19.0039 6.61647 18.5554 6.16797 18.0039 6.16797C17.4524 6.16797 17.0039 6.61647 17.0039 7.16797C17.0039 7.71947 17.4524 8.16797 18.0039 8.16797C18.2799 8.16797 18.5039 8.39197 18.5039 8.66797C18.5039 8.94397 18.2799 9.16797 18.0039 9.16797Z" fill="#351C42"/>
<path d="M18.0039 12.168C16.9009 12.168 16.0039 11.271 16.0039 10.168C16.0039 9.89197 16.2279 9.66797 16.5039 9.66797C16.7799 9.66797 17.0039 9.89197 17.0039 10.168C17.0039 10.7195 17.4524 11.168 18.0039 11.168C18.5554 11.168 19.0039 10.7195 19.0039 10.168C19.0039 9.61647 18.5554 9.16797 18.0039 9.16797C17.7279 9.16797 17.5039 8.94397 17.5039 8.66797C17.5039 8.39197 17.7279 8.16797 18.0039 8.16797C19.1069 8.16797 20.0039 9.06497 20.0039 10.168C20.0039 11.271 19.1069 12.168 18.0039 12.168Z" fill="#351C42"/>
<path d="M18.0039 13.168C17.7279 13.168 17.5039 12.944 17.5039 12.668V11.668C17.5039 11.392 17.7279 11.168 18.0039 11.168C18.2799 11.168 18.5039 11.392 18.5039 11.668V12.668C18.5039 12.944 18.2799 13.168 18.0039 13.168Z" fill="#351C42"/>
<path d="M18.0039 6.16797C17.7279 6.16797 17.5039 5.94397 17.5039 5.66797V4.66797C17.5039 4.39197 17.7279 4.16797 18.0039 4.16797C18.2799 4.16797 18.5039 4.39197 18.5039 4.66797V5.66797C18.5039 5.94397 18.2799 6.16797 18.0039 6.16797Z" fill="#351C42"/>
<path d="M18.0039 14.668C14.6954 14.668 12.0039 11.9765 12.0039 8.66797C12.0039 5.35947 14.6954 2.66797 18.0039 2.66797C21.3124 2.66797 24.0039 5.35947 24.0039 8.66797C24.0039 11.9765 21.3124 14.668 18.0039 14.668ZM18.0039 3.66797C15.2469 3.66797 13.0039 5.91097 13.0039 8.66797C13.0039 11.425 15.2469 13.668 18.0039 13.668C20.7609 13.668 23.0039 11.425 23.0039 8.66797C23.0039 5.91097 20.7609 3.66797 18.0039 3.66797Z" fill="#351C42"/>
<path d="M10.5039 8.66797C10.2279 8.66797 10.0039 8.44397 10.0039 8.16797V5.16797C10.0039 4.89197 10.2279 4.66797 10.5039 4.66797C10.7799 4.66797 11.0039 4.89197 11.0039 5.16797V8.16797C11.0039 8.44397 10.7799 8.66797 10.5039 8.66797Z" fill="#351C42"/>
<path d="M12.0039 3.66797C11.7279 3.66797 11.5039 3.44397 11.5039 3.16797V2.16797C11.5039 1.89197 11.7279 1.66797 12.0039 1.66797C12.2799 1.66797 12.5039 1.89197 12.5039 2.16797V3.16797C12.5039 3.44397 12.2799 3.66797 12.0039 3.66797Z" fill="#351C42"/>
<path d="M23.5039 4.66797C23.2279 4.66797 23.0039 4.44397 23.0039 4.16797V2.16797C23.0039 1.89197 23.2279 1.66797 23.5039 1.66797C23.7799 1.66797 24.0039 1.89197 24.0039 2.16797V4.16797C24.0039 4.44397 23.7799 4.66797 23.5039 4.66797Z" fill="#351C42"/>
<path d="M25.5039 11.668C25.2279 11.668 25.0039 11.444 25.0039 11.168V7.66797C25.0039 7.39197 25.2279 7.16797 25.5039 7.16797C25.7799 7.16797 26.0039 7.39197 26.0039 7.66797V11.168C26.0039 11.444 25.7799 11.668 25.5039 11.668Z" fill="#351C42"/>
<path d="M25.5039 6.16797C25.2279 6.16797 25.0039 5.94397 25.0039 5.66797V4.66797C25.0039 4.39197 25.2279 4.16797 25.5039 4.16797C25.7799 4.16797 26.0039 4.39197 26.0039 4.66797V5.66797C26.0039 5.94397 25.7799 6.16797 25.5039 6.16797Z" fill="#351C42"/>
<path d="M25.0039 19.168H11.0039C10.7279 19.168 10.5039 18.944 10.5039 18.668C10.5039 18.392 10.7279 18.168 11.0039 18.168H25.0039C25.2799 18.168 25.5039 18.392 25.5039 18.668C25.5039 18.944 25.2799 19.168 25.0039 19.168Z" fill="#351C42"/>
</svg>
