<svg width="36" height="37" viewBox="0 0 36 37" fill="none" xmlns="http://www.w3.org/2000/svg">
<path d="M34.5035 17.2197V15.7197C34.5035 15.4447 34.2785 15.2197 34.0035 15.2197C32.3485 15.2197 31.0035 16.5647 31.0035 18.2197V18.7547C29.9435 17.7997 28.5385 17.2197 27.0035 17.2197C26.9335 17.2197 26.8585 17.2197 26.7885 17.2247C27.8135 16.6197 28.5035 15.4997 28.5035 14.2197V12.2197C28.5035 11.9447 28.2785 11.7197 28.0035 11.7197C26.0735 11.7197 24.5035 13.2897 24.5035 15.2197V16.3947C23.8835 16.0997 23.2135 15.8947 22.5135 15.7947C22.4635 14.4397 22.0485 13.4197 21.3185 12.8297C20.6035 12.2547 19.4635 12.0197 18.4035 12.2297C17.7635 12.3547 17.2385 12.6397 16.8185 12.9697C16.8485 12.2547 16.7735 11.4297 16.4785 10.5597C16.1385 9.54972 15.2585 7.70972 13.2135 6.76472C11.6035 6.01972 9.05846 5.72472 7.17846 7.33972C5.95846 8.38472 5.30846 10.1147 5.43346 11.9697C5.54346 13.6047 6.29346 14.8497 7.06346 15.7247C5.72345 15.7247 4.41846 16.3197 3.60346 17.4197C2.50846 18.8897 2.50846 20.9347 3.58346 22.4947C3.74796 22.7417 3.91996 22.9822 4.09546 23.2197H3.00346C2.85846 23.2197 2.72096 23.2827 2.62596 23.3922C2.53096 23.5017 2.48846 23.6472 2.50896 23.7907C2.98046 27.0892 5.32195 29.7487 8.35495 30.7667C8.13895 31.0262 8.00346 31.3552 8.00346 31.7192C8.00346 32.5462 8.67646 33.2192 9.50346 33.2192H26.5035C27.3305 33.2192 28.0035 32.5462 28.0035 31.7192C28.0035 31.3557 27.868 31.0262 27.6525 30.7662C30.6855 29.7482 33.0275 27.0892 33.4985 23.7897C33.519 23.6462 33.4765 23.5007 33.3815 23.3912C33.2865 23.2817 33.1485 23.2192 33.0035 23.2192C33.0035 22.0992 32.6935 21.0497 32.1535 20.1497C33.4985 19.8497 34.5035 18.6497 34.5035 17.2197ZM27.4835 23.2192H15.5235C15.5085 23.0542 15.5035 22.8897 15.5035 22.7197C15.5035 19.4097 18.1935 16.7197 21.5035 16.7197C21.6385 16.7197 21.7735 16.7247 21.9085 16.7347C21.9435 16.7397 21.9735 16.7447 22.0085 16.7447H22.0185H22.0285C25.0935 17.0097 27.5035 19.5847 27.5035 22.7197C27.5035 22.8897 27.4985 23.0542 27.4835 23.2192ZM25.5035 15.2197C25.5035 14.0097 26.3635 12.9997 27.5035 12.7697V14.2197C27.5035 15.4247 26.6435 16.4347 25.5035 16.6697V15.2197ZM4.41346 21.9347C3.57346 20.7197 3.56846 19.1447 4.40346 18.0147C5.36846 16.7147 7.23345 16.3397 8.73345 17.1397C8.97345 17.2647 9.26346 17.1797 9.39846 16.9497C9.53846 16.7147 9.46345 16.4197 9.23345 16.2747C8.79845 15.9997 6.60846 14.4947 6.43346 11.8997C6.32846 10.3597 6.84845 8.93972 7.82845 8.09972C9.25346 6.87472 11.3485 7.00472 12.7935 7.67472C14.5035 8.45972 15.2385 10.0197 15.5285 10.8797C16.0635 12.4547 15.7585 13.8647 15.5285 14.5647C15.4485 14.8097 15.5685 15.0797 15.8085 15.1797C16.0485 15.2797 16.3285 15.1797 16.4485 14.9497C16.6285 14.6097 17.3135 13.4647 18.5985 13.2097C19.3685 13.0547 20.2085 13.2197 20.6885 13.6097C21.1685 13.9947 21.4535 14.7297 21.5035 15.7197C17.6435 15.7197 14.5035 18.8597 14.5035 22.7197C14.5035 22.8847 14.5085 23.0542 14.5235 23.2192H14.0335C14.1635 20.9942 13.9835 18.7742 13.4935 16.6097C13.0485 14.6597 12.3635 12.7697 11.4485 10.9897C11.3235 10.7447 11.0235 10.6497 10.7735 10.7747C10.5285 10.8997 10.4335 11.1997 10.5585 11.4497C11.4335 13.1547 12.0935 14.9647 12.5135 16.8297C12.9885 18.9247 13.1635 21.0747 13.0335 23.2192H12.2685C10.2385 20.2997 7.79346 19.2997 7.68846 19.2547C7.43345 19.1497 7.14346 19.2747 7.03846 19.5347C6.93846 19.7897 7.06346 20.0797 7.31846 20.1847C7.34346 20.1947 9.25846 20.9797 11.028 23.2192H5.35796C5.02846 22.8197 4.71346 22.3897 4.41346 21.9347ZM26.5035 31.2192C26.779 31.2192 27.0035 31.4432 27.0035 31.7192C27.0035 31.9952 26.779 32.2192 26.5035 32.2192H9.50346C9.22796 32.2192 9.00346 31.9952 9.00346 31.7192C9.00346 31.4432 9.22796 31.2192 9.50346 31.2192H11.0745H24.9325H26.5035ZM24.9325 30.2192H11.0745C7.48496 30.2192 4.36996 27.6777 3.60246 24.2192L32.4045 24.2197C31.637 27.6777 28.522 30.2192 24.9325 30.2192ZM28.4855 23.2192C28.4975 23.0537 28.5035 22.8867 28.5035 22.7197C28.5035 21.0097 27.8885 19.4447 26.8635 18.2247C26.9085 18.2197 26.9585 18.2197 27.0035 18.2197C29.7585 18.2197 32.003 20.4592 32.0035 23.2192H28.4855ZM32.0035 18.2197C32.0035 17.2897 32.6435 16.5047 33.5035 16.2847V17.2197C33.5035 18.1497 32.8635 18.9347 32.0035 19.1547V18.2197Z" fill="#351C42"/>
<path d="M3.50391 13.168C3.77991 13.168 4.00391 12.9445 4.00391 12.668V12.168C4.00391 11.8915 3.77991 11.668 3.50391 11.668C3.22791 11.668 3.00391 11.8915 3.00391 12.168V12.668C3.00391 12.9445 3.22791 13.168 3.50391 13.168Z" fill="#351C42"/>
<path d="M4.50391 14.168H5.00391C5.27991 14.168 5.50391 13.9445 5.50391 13.668C5.50391 13.3915 5.27991 13.168 5.00391 13.168H4.50391C4.22791 13.168 4.00391 13.3915 4.00391 13.668C4.00391 13.9445 4.22791 14.168 4.50391 14.168Z" fill="#351C42"/>
<path d="M3.50391 14.168C3.22791 14.168 3.00391 14.3915 3.00391 14.668V15.168C3.00391 15.4445 3.22791 15.668 3.50391 15.668C3.77991 15.668 4.00391 15.4445 4.00391 15.168V14.668C4.00391 14.3915 3.77991 14.168 3.50391 14.168Z" fill="#351C42"/>
<path d="M3.00391 13.668C3.00391 13.3915 2.77991 13.168 2.50391 13.168H2.00391C1.72791 13.168 1.50391 13.3915 1.50391 13.668C1.50391 13.9445 1.72791 14.168 2.00391 14.168H2.50391C2.77991 14.168 3.00391 13.9445 3.00391 13.668Z" fill="#351C42"/>
<path d="M20.0039 8.16797C20.2799 8.16797 20.5039 7.94447 20.5039 7.66797V7.16797C20.5039 6.89147 20.2799 6.66797 20.0039 6.66797C19.7279 6.66797 19.5039 6.89147 19.5039 7.16797V7.66797C19.5039 7.94447 19.7279 8.16797 20.0039 8.16797Z" fill="#351C42"/>
<path d="M21.0039 9.16797H21.5039C21.7799 9.16797 22.0039 8.94447 22.0039 8.66797C22.0039 8.39147 21.7799 8.16797 21.5039 8.16797H21.0039C20.7279 8.16797 20.5039 8.39147 20.5039 8.66797C20.5039 8.94447 20.7279 9.16797 21.0039 9.16797Z" fill="#351C42"/>
<path d="M20.0039 9.16797C19.7279 9.16797 19.5039 9.39147 19.5039 9.66797V10.168C19.5039 10.4445 19.7279 10.668 20.0039 10.668C20.2799 10.668 20.5039 10.4445 20.5039 10.168V9.66797C20.5039 9.39147 20.2799 9.16797 20.0039 9.16797Z" fill="#351C42"/>
<path d="M18.5039 9.16797H19.0039C19.2799 9.16797 19.5039 8.94447 19.5039 8.66797C19.5039 8.39147 19.2799 8.16797 19.0039 8.16797H18.5039C18.2279 8.16797 18.0039 8.39147 18.0039 8.66797C18.0039 8.94447 18.2279 9.16797 18.5039 9.16797Z" fill="#351C42"/>
<path d="M26.0039 4.66797C26.2799 4.66797 26.5039 4.44447 26.5039 4.16797V3.66797C26.5039 3.39147 26.2799 3.16797 26.0039 3.16797C25.7279 3.16797 25.5039 3.39147 25.5039 3.66797V4.16797C25.5039 4.44447 25.7279 4.66797 26.0039 4.66797Z" fill="#351C42"/>
<path d="M27.0039 5.66797H27.5039C27.7799 5.66797 28.0039 5.44447 28.0039 5.16797C28.0039 4.89147 27.7799 4.66797 27.5039 4.66797H27.0039C26.7279 4.66797 26.5039 4.89147 26.5039 5.16797C26.5039 5.44447 26.7279 5.66797 27.0039 5.66797Z" fill="#351C42"/>
<path d="M26.0039 5.66797C25.7279 5.66797 25.5039 5.89147 25.5039 6.16797V6.66797C25.5039 6.94447 25.7279 7.16797 26.0039 7.16797C26.2799 7.16797 26.5039 6.94447 26.5039 6.66797V6.16797C26.5039 5.89147 26.2799 5.66797 26.0039 5.66797Z" fill="#351C42"/>
<path d="M24.5039 5.66797H25.0039C25.2799 5.66797 25.5039 5.44447 25.5039 5.16797C25.5039 4.89147 25.2799 4.66797 25.0039 4.66797H24.5039C24.2279 4.66797 24.0039 4.89147 24.0039 5.16797C24.0039 5.44447 24.2279 5.66797 24.5039 5.66797Z" fill="#351C42"/>
</svg>
