<svg width="24" height="25" viewBox="0 0 24 25" fill="none" xmlns="http://www.w3.org/2000/svg">
<path d="M18.9905 19.625H19M18.9905 19.625C18.3678 20.2425 17.2393 20.0887 16.4479 20.0887C15.4765 20.0887 15.0087 20.2787 14.3154 20.972C13.7251 21.5624 12.9337 22.625 12 22.625C11.0663 22.625 10.2749 21.5624 9.68457 20.972C8.99128 20.2787 8.52349 20.0887 7.55206 20.0887C6.76068 20.0887 5.63218 20.2425 5.00949 19.625C4.38181 19.0026 4.53628 17.8694 4.53628 17.0729C4.53628 16.0664 4.31616 15.6036 3.59938 14.8868C2.53314 13.8206 2.00002 13.2874 2 12.625C2.00001 11.9625 2.53312 11.4294 3.59935 10.3632C4.2392 9.72332 4.53628 9.08928 4.53628 8.17706C4.53628 7.38565 4.38249 6.25714 5 5.63444C5.62243 5.00678 6.7556 5.16126 7.55208 5.16126C8.46427 5.16126 9.09832 4.8642 9.73815 4.22437C10.8044 3.15812 11.3375 2.625 12 2.625C12.6625 2.625 13.1956 3.15812 14.2618 4.22437C14.9015 4.86407 15.5355 5.16126 16.4479 5.16126C17.2393 5.16126 18.3679 5.00747 18.9906 5.625C19.6182 6.24743 19.4637 7.38059 19.4637 8.17706C19.4637 9.18358 19.6839 9.64637 20.4006 10.3632C21.4669 11.4294 22 11.9625 22 12.625C22 13.2874 21.4669 13.8206 20.4006 14.8868C19.6838 15.6036 19.4637 16.0664 19.4637 17.0729C19.4637 17.8694 19.6182 19.0026 18.9905 19.625Z" stroke="#351C42" stroke-width="1.5"/>
<path d="M9 13.5179C9 13.5179 10.2 14.1697 10.8 15.125C10.8 15.125 12.6 11.375 15 10.125" stroke="#351C42" stroke-width="1.5" stroke-linecap="round" stroke-linejoin="round"/>
</svg>
