<svg width="37" height="37" viewBox="0 0 37 37" fill="none" xmlns="http://www.w3.org/2000/svg">
<path d="M22.9043 14.7891C22.9043 17.2744 20.8896 19.2891 18.4043 19.2891C15.9189 19.2891 13.9043 17.2744 13.9043 14.7891C13.9043 12.3038 15.9189 10.2891 18.4043 10.2891C20.8896 10.2891 22.9043 12.3038 22.9043 14.7891Z" stroke="#FEFEFE" stroke-width="1.5"/>
<path d="M18.4043 3.53906C24.4925 3.53906 29.6543 8.68111 29.6543 14.9194C29.6543 21.2571 24.4085 25.7046 19.563 28.7289C19.2099 28.9321 18.8106 29.0391 18.4043 29.0391C17.9979 29.0391 17.5986 28.9321 17.2455 28.7289C12.4092 25.675 7.1543 21.279 7.1543 14.9194C7.1543 8.68111 12.3161 3.53906 18.4043 3.53906Z" stroke="#FEFEFE" stroke-width="1.5"/>
<path d="M27.4043 30.5391C27.4043 32.196 23.3748 33.5391 18.4043 33.5391C13.4337 33.5391 9.4043 32.196 9.4043 30.5391" stroke="#FEFEFE" stroke-width="1.5" stroke-linecap="round"/>
</svg>
