<svg width="37" height="37" viewBox="0 0 37 37" fill="none" xmlns="http://www.w3.org/2000/svg">
<path d="M10.9062 13.2891L15.3193 15.8982C17.8921 17.4193 18.9204 17.4193 21.4932 15.8982L25.9062 13.2891" stroke="#FEFEFE" stroke-width="1.5" stroke-linecap="round" stroke-linejoin="round"/>
<path d="M3.4299 20.7525C3.52797 25.3508 3.57699 27.65 5.27368 29.3531C6.97038 31.0563 9.33175 31.1156 14.0545 31.2342C16.9652 31.3074 19.8473 31.3074 22.7581 31.2342C27.4808 31.1156 29.8421 31.0563 31.5388 29.3531C33.2356 27.65 33.2846 25.3508 33.3826 20.7525C33.4142 19.274 33.4142 17.8041 33.3826 16.3257C33.2846 11.7274 33.2356 9.4282 31.5388 7.72505C29.8421 6.02191 27.4808 5.96258 22.7581 5.84392C19.8473 5.77078 16.9652 5.77078 14.0545 5.8439C9.33175 5.96255 6.97038 6.02188 5.27368 7.72504C3.57699 9.42818 3.52795 11.7273 3.4299 16.3256C3.39837 17.8041 3.39837 19.274 3.4299 20.7525Z" stroke="#FEFEFE" stroke-width="1.5" stroke-linejoin="round"/>
</svg>
