<svg width="37" height="37" viewBox="0 0 37 37" fill="none" xmlns="http://www.w3.org/2000/svg">
<path d="M14.1397 9.10741L13.5357 7.74844C13.1408 6.85988 12.9434 6.41558 12.6481 6.07558C12.278 5.64947 11.7955 5.33597 11.2559 5.17084C10.8252 5.03906 10.339 5.03906 9.36665 5.03906C7.9442 5.03906 7.23298 5.03906 6.63593 5.3125C5.93264 5.63459 5.2975 6.33398 5.04443 7.06496C4.8296 7.6855 4.89115 8.32321 5.01421 9.59861C6.3242 23.1744 13.7671 30.6172 27.3427 31.9272C28.6182 32.0503 29.256 32.1118 29.8764 31.897C30.6075 31.644 31.3068 31.0087 31.629 30.3055C31.9023 29.7084 31.9023 28.9972 31.9023 27.5748C31.9023 26.6023 31.9023 26.1162 31.7706 25.6855C31.6054 25.1458 31.2919 24.6634 30.8658 24.2934C30.5259 23.998 30.0816 23.8006 29.193 23.4057L27.834 22.8016C26.8717 22.374 26.3905 22.1602 25.9017 22.1137C25.4337 22.0692 24.9619 22.1349 24.5239 22.3054C24.0663 22.4836 23.6619 22.8207 22.8528 23.4948C22.0476 24.1659 21.645 24.5014 21.153 24.6811C20.7168 24.8404 20.1402 24.8995 19.6809 24.8317C19.1626 24.7554 18.7659 24.5434 17.9722 24.1192C15.5032 22.7998 14.1416 21.4383 12.8221 18.9691C12.3981 18.1756 12.186 17.7787 12.1096 17.2606C12.0419 16.8012 12.101 16.2246 12.2603 15.7885C12.44 15.2965 12.7756 14.8939 13.4466 14.0886C14.1208 13.2796 14.4579 12.8751 14.6361 12.4174C14.8066 11.9795 14.8723 11.5077 14.8278 11.0398C14.7813 10.5508 14.5674 10.0697 14.1397 9.10741Z" stroke="#FEFEFE" stroke-width="1.5" stroke-linecap="round"/>
</svg>
