<svg width="24" height="25" viewBox="0 0 24 25" fill="none" xmlns="http://www.w3.org/2000/svg">
<path d="M18.9944 19.8164H19.0039M18.9944 19.8164C18.3717 20.4339 17.2432 20.2801 16.4518 20.2801C15.4804 20.2801 15.0126 20.4701 14.3193 21.1634C13.729 21.7538 12.9376 22.8164 12.0039 22.8164C11.0702 22.8164 10.2788 21.7538 9.68848 21.1634C8.99519 20.4701 8.5274 20.2801 7.55597 20.2801C6.76459 20.2801 5.63609 20.4339 5.0134 19.8164C4.38572 19.194 4.54019 18.0608 4.54019 17.2643C4.54019 16.2578 4.32007 15.795 3.60329 15.0782C2.53705 14.012 2.00393 13.4788 2.00391 12.8164C2.00392 12.1539 2.53703 11.6208 3.60326 10.5546C4.24311 9.91473 4.54019 9.28069 4.54019 8.36847C4.54019 7.57706 4.3864 6.44855 5.00391 5.82585C5.62634 5.19819 6.75951 5.35267 7.55599 5.35267C8.46818 5.35267 9.10223 5.05561 9.74206 4.41578C10.8083 3.34953 11.3414 2.81641 12.0039 2.81641C12.6664 2.81641 13.1995 3.34953 14.2657 4.41578C14.9054 5.05548 15.5394 5.35267 16.4518 5.35267C17.2432 5.35267 18.3718 5.19888 18.9945 5.81641C19.6221 6.43884 19.4676 7.572 19.4676 8.36847C19.4676 9.37499 19.6878 9.83778 20.4045 10.5546C21.4708 11.6208 22.0039 12.1539 22.0039 12.8164C22.0039 13.4788 21.4708 14.012 20.4045 15.0782C19.6877 15.795 19.4676 16.2578 19.4676 17.2643C19.4676 18.0608 19.6221 19.194 18.9944 19.8164Z" stroke="#351C42" stroke-width="1.5"/>
<path d="M9.00391 13.7093C9.00391 13.7093 10.2039 14.3611 10.8039 15.3164C10.8039 15.3164 12.6039 11.5664 15.0039 10.3164" stroke="#351C42" stroke-width="1.5" stroke-linecap="round" stroke-linejoin="round"/>
</svg>
