<svg width="36" height="37" viewBox="0 0 36 37" fill="none" xmlns="http://www.w3.org/2000/svg">
<path d="M29.1299 24.1793C35.0559 16.6651 33.455 9.212 29.1978 6.6006C25.1753 4.13322 21.6645 5.12754 19.5555 6.71139L18.0036 7.87175M29.1299 24.1793C27.7074 25.9828 25.8515 27.79 23.4947 29.5345C21.1754 31.2511 20.0157 32.1094 18.0039 32.1094C15.9921 32.1094 14.8325 31.2511 12.5132 29.5345C0.336485 20.5217 1.53101 9.83877 6.81006 6.6006C10.8325 4.13322 14.3433 5.12754 16.4523 6.71139L18.0036 7.87175M29.1299 24.1793L20.8421 14.7766C20.5028 14.3917 19.9349 14.3088 19.4997 14.5807L16.2206 16.6303C15.0666 17.3515 13.5689 17.1892 12.5963 16.2374C11.3115 14.9803 11.4411 12.8759 12.8705 11.786L18.0036 7.87175" stroke="#351C42" stroke-width="1.5" stroke-linecap="round" stroke-linejoin="round"/>
</svg>
