<svg width="36" height="37" viewBox="0 0 36 37" fill="none" xmlns="http://www.w3.org/2000/svg">
<path d="M15.0039 14.4922C11.4134 12.5469 7.62475 9.1808 4.50391 3.60938M17.4272 7.23789C14.3747 5.23463 10.65 6.07185 9.10798 9.10788C7.56592 12.1439 8.79037 16.229 11.8429 18.2323C14.6064 20.0459 20.6547 21.9212 25.5039 16.7269C20.9598 14.7917 20.4797 9.24114 17.4272 7.23789Z" stroke="#351C42" stroke-width="1.5" stroke-linecap="round" stroke-linejoin="round"/>
<path d="M6.00391 17.1094C5.0453 17.8157 4.50391 18.6175 4.50391 19.4674C4.50391 22.3072 10.5481 24.6094 18.0039 24.6094C25.4598 24.6094 31.5039 22.3072 31.5039 19.4674C31.5039 18.6175 30.9626 17.8157 30.0039 17.1094" stroke="#351C42" stroke-width="1.5" stroke-linecap="round"/>
<path d="M31.5039 20.1094C31.5039 25.4743 27.7443 30.1814 23.6966 32.8327C22.8642 33.3779 21.8745 33.6094 20.8796 33.6094H15.1283C14.1333 33.6094 13.1435 33.3779 12.3112 32.8327C8.26351 30.1814 4.50391 25.4743 4.50391 20.1094" stroke="#351C42" stroke-width="1.5" stroke-linecap="round"/>
</svg>
