<svg width="36" height="37" viewBox="0 0 36 37" fill="none" xmlns="http://www.w3.org/2000/svg">
<path d="M11.2539 29.8594C11.2539 28.411 11.7467 26.9458 12.9503 26.14C14.3937 25.1735 16.1325 24.6094 18.0039 24.6094C19.8753 24.6094 21.6141 25.1735 23.0576 26.14C24.2612 26.9458 24.7539 28.411 24.7539 29.8594" stroke="#351C42" stroke-width="1.5" stroke-linecap="round" stroke-linejoin="round"/>
<path d="M18.0039 20.8594C20.075 20.8594 21.7539 19.1804 21.7539 17.1094C21.7539 15.0383 20.075 13.3594 18.0039 13.3594C15.9328 13.3594 14.2539 15.0383 14.2539 17.1094C14.2539 19.1804 15.9328 20.8594 18.0039 20.8594Z" stroke="#351C42" stroke-width="1.5" stroke-linecap="round" stroke-linejoin="round"/>
<path d="M26.2539 17.1094C27.9191 17.1094 29.4662 17.6747 30.75 18.643C31.8383 19.4638 32.2539 20.852 32.2539 22.2151V22.3594" stroke="#351C42" stroke-width="1.5" stroke-linecap="round" stroke-linejoin="round"/>
<path d="M26.2539 13.3594C27.9108 13.3594 29.2539 12.0162 29.2539 10.3594C29.2539 8.70252 27.9108 7.35938 26.2539 7.35938C24.5971 7.35938 23.2539 8.70252 23.2539 10.3594C23.2539 12.0162 24.5971 13.3594 26.2539 13.3594Z" stroke="#351C42" stroke-width="1.5" stroke-linecap="round" stroke-linejoin="round"/>
<path d="M9.75391 17.1094C8.08871 17.1094 6.5416 17.6747 5.25775 18.643C4.1695 19.4638 3.75391 20.852 3.75391 22.2151V22.3594" stroke="#351C42" stroke-width="1.5" stroke-linecap="round" stroke-linejoin="round"/>
<path d="M9.75391 13.3594C11.4108 13.3594 12.7539 12.0162 12.7539 10.3594C12.7539 8.70252 11.4108 7.35938 9.75391 7.35938C8.09705 7.35938 6.75391 8.70252 6.75391 10.3594C6.75391 12.0162 8.09705 13.3594 9.75391 13.3594Z" stroke="#351C42" stroke-width="1.5" stroke-linecap="round" stroke-linejoin="round"/>
</svg>
